<svg width="49" height="48" viewBox="0 0 49 48" fill="none" xmlns="http://www.w3.org/2000/svg">
<path d="M42.5 9H6.5C5.70435 9 4.94129 9.31607 4.37868 9.87868C3.81607 10.4413 3.5 11.2044 3.5 12V16.5C3.5 17.2956 3.81607 18.0587 4.37868 18.6213C4.94129 19.1839 5.70435 19.5 6.5 19.5V36C6.5 36.7956 6.81607 37.5587 7.37868 38.1213C7.94129 38.6839 8.70435 39 9.5 39H39.5C40.2957 39 41.0587 38.6839 41.6213 38.1213C42.1839 37.5587 42.5 36.7956 42.5 36V19.5C43.2957 19.5 44.0587 19.1839 44.6213 18.6213C45.1839 18.0587 45.5 17.2956 45.5 16.5V12C45.5 11.2044 45.1839 10.4413 44.6213 9.87868C44.0587 9.31607 43.2957 9 42.5 9ZM39.5 36H9.5V19.5H39.5V36ZM42.5 16.5H6.5V12H42.5V16.5ZM18.5 25.5C18.5 25.1022 18.658 24.7206 18.9393 24.4393C19.2206 24.158 19.6022 24 20 24H29C29.3978 24 29.7794 24.158 30.0607 24.4393C30.342 24.7206 30.5 25.1022 30.5 25.5C30.5 25.8978 30.342 26.2794 30.0607 26.5607C29.7794 26.842 29.3978 27 29 27H20C19.6022 27 19.2206 26.842 18.9393 26.5607C18.658 26.2794 18.5 25.8978 18.5 25.5Z" fill="black"/>
</svg>
