<svg width="49" height="48" viewBox="0 0 49 48" fill="none" xmlns="http://www.w3.org/2000/svg">
<path d="M47.8601 38.6338L39.1335 47.3606C38.7241 47.77 38.1689 48 37.59 48C37.011 48 36.4558 47.77 36.0464 47.3606C35.6371 46.9513 35.4071 46.396 35.4071 45.8171C35.4071 45.2381 35.6371 44.6829 36.0464 44.2735L41.0506 39.272H2.68338C2.10477 39.272 1.54985 39.0421 1.14071 38.6329C0.73157 38.2238 0.501716 37.6689 0.501716 37.0902C0.501716 36.5116 0.73157 35.9567 1.14071 35.5475C1.54985 35.1384 2.10477 34.9085 2.68338 34.9085H41.0506L36.0464 29.907C35.6371 29.4976 35.4071 28.9424 35.4071 28.3634C35.4071 27.7845 35.6371 27.2292 36.0464 26.8199C36.4558 26.4105 37.011 26.1805 37.59 26.1805C38.1689 26.1805 38.7241 26.4105 39.1335 26.8199L47.8601 35.5467C48.063 35.7493 48.2239 35.9899 48.3337 36.2548C48.4435 36.5196 48.5 36.8035 48.5 37.0902C48.5 37.377 48.4435 37.6609 48.3337 37.9257C48.2239 38.1906 48.063 38.4312 47.8601 38.6338ZM9.8665 21.1801C10.2759 21.5895 10.8311 21.8195 11.41 21.8195C11.989 21.8195 12.5442 21.5895 12.9536 21.1801C13.3629 20.7708 13.5929 20.2155 13.5929 19.6366C13.5929 19.0576 13.3629 18.5024 12.9536 18.093L7.94937 13.0915H46.3166C46.8952 13.0915 47.4502 12.8616 47.8593 12.4525C48.2684 12.0433 48.4983 11.4884 48.4983 10.9098C48.4983 10.3311 48.2684 9.7762 47.8593 9.36705C47.4502 8.9579 46.8952 8.72804 46.3166 8.72804H7.94937L12.9536 3.72648C13.3629 3.3171 13.5929 2.76187 13.5929 2.18292C13.5929 1.60397 13.3629 1.04874 12.9536 0.639363C12.5442 0.229985 11.989 8.62698e-09 11.41 0C10.8311 -8.62698e-09 10.2759 0.229985 9.8665 0.639363L1.13985 9.36619C0.93701 9.56881 0.776093 9.80943 0.666302 10.0743C0.556511 10.3391 0.5 10.623 0.5 10.9098C0.5 11.1965 0.556511 11.4804 0.666302 11.7452C0.776093 12.0101 0.93701 12.2507 1.13985 12.4533L9.8665 21.1801Z" fill="black"/>
</svg>
