<svg width="18" height="16" viewBox="0 0 18 16" fill="none" xmlns="http://www.w3.org/2000/svg">
<path d="M17.7801 8.53068L11.0301 15.2807C10.8894 15.4214 10.6985 15.5005 10.4995 15.5005C10.3005 15.5005 10.1096 15.4214 9.96889 15.2807C9.82816 15.1399 9.74909 14.9491 9.74909 14.7501C9.74909 14.551 9.82816 14.3602 9.96889 14.2194L15.4392 8.75005H0.749512C0.550599 8.75005 0.359834 8.67103 0.219182 8.53038C0.0785295 8.38973 -0.000488281 8.19896 -0.000488281 8.00005C-0.000488281 7.80114 0.0785295 7.61037 0.219182 7.46972C0.359834 7.32907 0.550599 7.25005 0.749512 7.25005H15.4392L9.96889 1.78068C9.82816 1.63995 9.74909 1.44907 9.74909 1.25005C9.74909 1.05103 9.82816 0.860156 9.96889 0.719426C10.1096 0.578695 10.3005 0.499634 10.4995 0.499634C10.6985 0.499634 10.8894 0.578695 11.0301 0.719426L17.7801 7.46943C17.8499 7.53908 17.9052 7.6218 17.9429 7.71285C17.9807 7.80389 18.0001 7.90149 18.0001 8.00005C18.0001 8.09861 17.9807 8.19621 17.9429 8.28726C17.9052 8.3783 17.8499 8.46102 17.7801 8.53068Z" fill="white"/>
</svg>
