<svg width="49" height="48" viewBox="0 0 49 48" fill="none" xmlns="http://www.w3.org/2000/svg">
<path d="M45.5 39H42.5V18C42.5 17.2043 42.1839 16.4413 41.6213 15.8787C41.0587 15.3161 40.2957 15 39.5 15H27.5V6C27.5004 5.45674 27.3532 4.92358 27.0742 4.45743C26.7952 3.99128 26.3949 3.60964 25.916 3.35323C25.437 3.09682 24.8974 2.97527 24.3548 3.00156C23.8122 3.02785 23.2869 3.20099 22.835 3.5025L7.835 13.5C7.42351 13.7745 7.08629 14.1466 6.85337 14.583C6.62046 15.0194 6.49906 15.5066 6.5 16.0012V39H3.5C3.10218 39 2.72064 39.158 2.43934 39.4393C2.15804 39.7206 2 40.1022 2 40.5C2 40.8978 2.15804 41.2794 2.43934 41.5607C2.72064 41.842 3.10218 42 3.5 42H45.5C45.8978 42 46.2794 41.842 46.5607 41.5607C46.842 41.2794 47 40.8978 47 40.5C47 40.1022 46.842 39.7206 46.5607 39.4393C46.2794 39.158 45.8978 39 45.5 39ZM39.5 18V39H27.5V18H39.5ZM9.5 16.0012L24.5 6V39H9.5V16.0012ZM21.5 21V24C21.5 24.3978 21.342 24.7794 21.0607 25.0607C20.7794 25.342 20.3978 25.5 20 25.5C19.6022 25.5 19.2206 25.342 18.9393 25.0607C18.658 24.7794 18.5 24.3978 18.5 24V21C18.5 20.6022 18.658 20.2206 18.9393 19.9393C19.2206 19.658 19.6022 19.5 20 19.5C20.3978 19.5 20.7794 19.658 21.0607 19.9393C21.342 20.2206 21.5 20.6022 21.5 21ZM15.5 21V24C15.5 24.3978 15.342 24.7794 15.0607 25.0607C14.7794 25.342 14.3978 25.5 14 25.5C13.6022 25.5 13.2206 25.342 12.9393 25.0607C12.658 24.7794 12.5 24.3978 12.5 24V21C12.5 20.6022 12.658 20.2206 12.9393 19.9393C13.2206 19.658 13.6022 19.5 14 19.5C14.3978 19.5 14.7794 19.658 15.0607 19.9393C15.342 20.2206 15.5 20.6022 15.5 21ZM15.5 31.5V34.5C15.5 34.8978 15.342 35.2794 15.0607 35.5607C14.7794 35.842 14.3978 36 14 36C13.6022 36 13.2206 35.842 12.9393 35.5607C12.658 35.2794 12.5 34.8978 12.5 34.5V31.5C12.5 31.1022 12.658 30.7206 12.9393 30.4393C13.2206 30.158 13.6022 30 14 30C14.3978 30 14.7794 30.158 15.0607 30.4393C15.342 30.7206 15.5 31.1022 15.5 31.5ZM21.5 31.5V34.5C21.5 34.8978 21.342 35.2794 21.0607 35.5607C20.7794 35.842 20.3978 36 20 36C19.6022 36 19.2206 35.842 18.9393 35.5607C18.658 35.2794 18.5 34.8978 18.5 34.5V31.5C18.5 31.1022 18.658 30.7206 18.9393 30.4393C19.2206 30.158 19.6022 30 20 30C20.3978 30 20.7794 30.158 21.0607 30.4393C21.342 30.7206 21.5 31.1022 21.5 31.5Z" fill="white"/>
</svg>
