<svg width="43" height="35" viewBox="0 0 43 35" fill="none" xmlns="http://www.w3.org/2000/svg">
<path d="M42.455 25.6362L38.24 8.7725C38.0777 8.12317 37.7029 7.54677 37.1753 7.13498C36.6476 6.7232 35.9974 6.49968 35.3281 6.5H23V3.5C23 2.70435 22.6839 1.94129 22.1213 1.37868C21.5587 0.81607 20.7956 0.5 20 0.5H12.5C11.7044 0.5 10.9413 0.81607 10.3787 1.37868C9.81607 1.94129 9.5 2.70435 9.5 3.5V6.5H7.67188C7.00257 6.49968 6.35238 6.7232 5.82473 7.13498C5.29709 7.54677 4.92231 8.12317 4.76 8.7725L0.545 25.6362C0.515056 25.7552 0.499941 25.8774 0.5 26V32C0.5 32.7957 0.816071 33.5587 1.37868 34.1213C1.94129 34.6839 2.70435 35 3.5 35H39.5C40.2957 35 41.0587 34.6839 41.6213 34.1213C42.1839 33.5587 42.5 32.7957 42.5 32V26C42.5001 25.8774 42.4849 25.7552 42.455 25.6362ZM12.5 3.5H20V6.5H12.5V3.5ZM7.67188 9.5H35.3281L39.0781 24.5H3.92188L7.67188 9.5ZM3.5 32V27.5H39.5V32H3.5ZM9.5 14C9.5 13.6022 9.65804 13.2206 9.93934 12.9393C10.2206 12.658 10.6022 12.5 11 12.5H14C14.3978 12.5 14.7794 12.658 15.0607 12.9393C15.342 13.2206 15.5 13.6022 15.5 14C15.5 14.3978 15.342 14.7794 15.0607 15.0607C14.7794 15.342 14.3978 15.5 14 15.5H11C10.6022 15.5 10.2206 15.342 9.93934 15.0607C9.65804 14.7794 9.5 14.3978 9.5 14ZM18.5 14C18.5 13.6022 18.658 13.2206 18.9393 12.9393C19.2206 12.658 19.6022 12.5 20 12.5H23C23.3978 12.5 23.7794 12.658 24.0607 12.9393C24.342 13.2206 24.5 13.6022 24.5 14C24.5 14.3978 24.342 14.7794 24.0607 15.0607C23.7794 15.342 23.3978 15.5 23 15.5H20C19.6022 15.5 19.2206 15.342 18.9393 15.0607C18.658 14.7794 18.5 14.3978 18.5 14ZM27.5 14C27.5 13.6022 27.658 13.2206 27.9393 12.9393C28.2206 12.658 28.6022 12.5 29 12.5H32C32.3978 12.5 32.7794 12.658 33.0607 12.9393C33.342 13.2206 33.5 13.6022 33.5 14C33.5 14.3978 33.342 14.7794 33.0607 15.0607C32.7794 15.342 32.3978 15.5 32 15.5H29C28.6022 15.5 28.2206 15.342 27.9393 15.0607C27.658 14.7794 27.5 14.3978 27.5 14ZM9.5 20C9.5 19.6022 9.65804 19.2206 9.93934 18.9393C10.2206 18.658 10.6022 18.5 11 18.5H14C14.3978 18.5 14.7794 18.658 15.0607 18.9393C15.342 19.2206 15.5 19.6022 15.5 20C15.5 20.3978 15.342 20.7794 15.0607 21.0607C14.7794 21.342 14.3978 21.5 14 21.5H11C10.6022 21.5 10.2206 21.342 9.93934 21.0607C9.65804 20.7794 9.5 20.3978 9.5 20ZM18.5 20C18.5 19.6022 18.658 19.2206 18.9393 18.9393C19.2206 18.658 19.6022 18.5 20 18.5H23C23.3978 18.5 23.7794 18.658 24.0607 18.9393C24.342 19.2206 24.5 19.6022 24.5 20C24.5 20.3978 24.342 20.7794 24.0607 21.0607C23.7794 21.342 23.3978 21.5 23 21.5H20C19.6022 21.5 19.2206 21.342 18.9393 21.0607C18.658 20.7794 18.5 20.3978 18.5 20ZM27.5 20C27.5 19.6022 27.658 19.2206 27.9393 18.9393C28.2206 18.658 28.6022 18.5 29 18.5H32C32.3978 18.5 32.7794 18.658 33.0607 18.9393C33.342 19.2206 33.5 19.6022 33.5 20C33.5 20.3978 33.342 20.7794 33.0607 21.0607C32.7794 21.342 32.3978 21.5 32 21.5H29C28.6022 21.5 28.2206 21.342 27.9393 21.0607C27.658 20.7794 27.5 20.3978 27.5 20Z" fill="black"/>
</svg>
