<svg width="49" height="48" viewBox="0 0 49 48" fill="none" xmlns="http://www.w3.org/2000/svg">
<path d="M42.5 9H6.5C5.70435 9 4.94129 9.31607 4.37868 9.87868C3.81607 10.4413 3.5 11.2044 3.5 12V36C3.5 36.7956 3.81607 37.5587 4.37868 38.1213C4.94129 38.6839 5.70435 39 6.5 39H42.5C43.2957 39 44.0587 38.6839 44.6213 38.1213C45.1839 37.5587 45.5 36.7956 45.5 36V12C45.5 11.2044 45.1839 10.4413 44.6213 9.87868C44.0587 9.31607 43.2957 9 42.5 9ZM42.5 12V16.5H6.5V12H42.5ZM42.5 36H6.5V19.5H42.5V36ZM39.5 31.5C39.5 31.8978 39.342 32.2794 39.0607 32.5607C38.7794 32.842 38.3978 33 38 33H32C31.6022 33 31.2206 32.842 30.9393 32.5607C30.658 32.2794 30.5 31.8978 30.5 31.5C30.5 31.1022 30.658 30.7206 30.9393 30.4393C31.2206 30.158 31.6022 30 32 30H38C38.3978 30 38.7794 30.158 39.0607 30.4393C39.342 30.7206 39.5 31.1022 39.5 31.5ZM27.5 31.5C27.5 31.8978 27.342 32.2794 27.0607 32.5607C26.7794 32.842 26.3978 33 26 33H23C22.6022 33 22.2206 32.842 21.9393 32.5607C21.658 32.2794 21.5 31.8978 21.5 31.5C21.5 31.1022 21.658 30.7206 21.9393 30.4393C22.2206 30.158 22.6022 30 23 30H26C26.3978 30 26.7794 30.158 27.0607 30.4393C27.342 30.7206 27.5 31.1022 27.5 31.5Z" fill="black"/>
</svg>
