<svg width="49" height="48" viewBox="0 0 49 48" fill="none" xmlns="http://www.w3.org/2000/svg">
<path d="M44 37.2469V45C44 45.3978 43.842 45.7794 43.5607 46.0607C43.2794 46.342 42.8978 46.5 42.5 46.5C42.1022 46.5 41.7206 46.342 41.4393 46.0607C41.158 45.7794 41 45.3978 41 45V37.2469C40.993 35.3215 40.5899 33.4182 39.8157 31.6554C39.0416 29.8926 37.9129 28.3079 36.5 27V37.9406C36.4997 38.2634 36.3953 38.5775 36.2023 38.8363C36.0093 39.095 35.7379 39.2846 35.4286 39.3768C35.1193 39.469 34.7884 39.459 34.4852 39.3482C34.182 39.2375 33.9226 39.0318 33.7456 38.7619L31.7431 35.7037C31.7281 35.6812 31.7131 35.6569 31.7 35.6325C31.4059 35.1131 30.9174 34.7318 30.3422 34.5725C29.7669 34.4132 29.1519 34.489 28.6325 34.7831C28.1131 35.0773 27.7318 35.5657 27.5725 36.141C27.4132 36.7162 27.489 37.3312 27.7831 37.8506L31.9325 44.1862C32.1503 44.5192 32.2269 44.925 32.1455 45.3144C32.0641 45.7039 31.8314 46.045 31.4984 46.2628C31.1655 46.4806 30.7597 46.5572 30.3703 46.4758C29.9808 46.3944 29.6397 46.1617 29.4219 45.8287L25.2481 39.4537L25.2031 39.3825C24.557 38.2753 24.3384 36.97 24.5884 35.7126C24.8384 34.4553 25.5398 33.3329 26.5603 32.5571C27.5808 31.7813 28.8499 31.4057 30.1283 31.5011C31.4067 31.5965 32.6059 32.1563 33.5 33.075V12H30.5C30.1022 12 29.7206 11.842 29.4393 11.5607C29.158 11.2794 29 10.8978 29 10.5C29 10.1022 29.158 9.72064 29.4393 9.43934C29.7206 9.15803 30.1022 9 30.5 9H33.5C34.2956 9 35.0587 9.31607 35.6213 9.87868C36.1839 10.4413 36.5 11.2043 36.5 12V23.1787C38.8023 24.7345 40.6893 26.8297 41.9965 29.2817C43.3037 31.7337 43.9915 34.4682 44 37.2469ZM17 10.5C17 10.1022 16.842 9.72064 16.5607 9.43934C16.2794 9.15803 15.8978 9 15.5 9H12.5C11.7044 9 10.9413 9.31607 10.3787 9.87868C9.81607 10.4413 9.5 11.2043 9.5 12V37.5C9.5 37.8978 9.65804 38.2794 9.93934 38.5607C10.2206 38.842 10.6022 39 11 39C11.3978 39 11.7794 38.842 12.0607 38.5607C12.342 38.2794 12.5 37.8978 12.5 37.5V12H15.5C15.8978 12 16.2794 11.842 16.5607 11.5607C16.842 11.2794 17 10.8978 17 10.5ZM30.0613 18.4387C29.9219 18.2993 29.7565 18.1886 29.5744 18.1132C29.3923 18.0377 29.1971 17.9988 29 17.9988C28.8029 17.9988 28.6077 18.0377 28.4256 18.1132C28.2435 18.1886 28.0781 18.2993 27.9387 18.4387L24.5 21.8794V3C24.5 2.60218 24.342 2.22064 24.0607 1.93934C23.7794 1.65804 23.3978 1.5 23 1.5C22.6022 1.5 22.2206 1.65804 21.9393 1.93934C21.658 2.22064 21.5 2.60218 21.5 3V21.8794L18.0613 18.4387C17.7798 18.1573 17.398 17.9992 17 17.9992C16.602 17.9992 16.2202 18.1573 15.9387 18.4387C15.6573 18.7202 15.4992 19.102 15.4992 19.5C15.4992 19.898 15.6573 20.2798 15.9387 20.5612L21.9387 26.5612C22.0781 26.7007 22.2435 26.8114 22.4256 26.8868C22.6077 26.9623 22.8029 27.0012 23 27.0012C23.1971 27.0012 23.3923 26.9623 23.5744 26.8868C23.7565 26.8114 23.9219 26.7007 24.0613 26.5612L30.0613 20.5612C30.2007 20.4219 30.3114 20.2565 30.3868 20.0744C30.4623 19.8923 30.5012 19.6971 30.5012 19.5C30.5012 19.3029 30.4623 19.1077 30.3868 18.9256C30.3114 18.7435 30.2007 18.5781 30.0613 18.4387Z" fill="white"/>
</svg>
