<svg width="49" height="48" viewBox="0 0 49 48" fill="none" xmlns="http://www.w3.org/2000/svg">
<path d="M45.5 39H42.5V25.5L42.9388 25.9387C43.2207 26.2202 43.6029 26.3781 44.0013 26.3778C44.3997 26.3774 44.7817 26.2188 45.0631 25.9369C45.3446 25.6549 45.5025 25.2727 45.5022 24.8743C45.5018 24.4759 45.3432 24.094 45.0612 23.8125L26.6206 5.3775C26.0581 4.81531 25.2953 4.49951 24.5 4.49951C23.7047 4.49951 22.9419 4.81531 22.3794 5.3775L3.93875 23.8125C3.65754 24.094 3.49965 24.4756 3.49983 24.8735C3.5 25.2713 3.65823 25.6528 3.93969 25.9341C4.22115 26.2153 4.60279 26.3732 5.00066 26.373C5.39853 26.3728 5.78004 26.2146 6.06125 25.9331L6.5 25.5V39H3.5C3.10218 39 2.72064 39.158 2.43934 39.4393C2.15804 39.7206 2 40.1022 2 40.5C2 40.8978 2.15804 41.2794 2.43934 41.5607C2.72064 41.842 3.10218 42 3.5 42H45.5C45.8978 42 46.2794 41.842 46.5607 41.5607C46.842 41.2794 47 40.8978 47 40.5C47 40.1022 46.842 39.7206 46.5607 39.4393C46.2794 39.158 45.8978 39 45.5 39ZM9.5 22.5L24.5 7.5L39.5 22.5V39H30.5V28.5C30.5 28.1022 30.342 27.7206 30.0607 27.4393C29.7794 27.158 29.3978 27 29 27H20C19.6022 27 19.2206 27.158 18.9393 27.4393C18.658 27.7206 18.5 28.1022 18.5 28.5V39H9.5V22.5ZM27.5 39H21.5V30H27.5V39Z" fill="black"/>
</svg>
