<svg width="45" height="37" viewBox="0 0 45 37" fill="none" xmlns="http://www.w3.org/2000/svg">
<path d="M43.1869 22.4488C42.6287 22.0193 41.979 21.7243 41.2883 21.5868C40.5976 21.4492 39.8845 21.4728 39.2044 21.6556L31.3594 23.4594C31.5419 22.6884 31.5475 21.886 31.3759 21.1125C31.2042 20.339 30.8597 19.6144 30.3681 18.993C29.8766 18.3716 29.2508 17.8695 28.5376 17.5243C27.8244 17.1792 27.0423 16.9999 26.25 17H16.8638C16.0755 16.998 15.2947 17.1523 14.5664 17.4538C13.8381 17.7554 13.1768 18.1983 12.6206 18.7569L8.37937 23H3C2.20435 23 1.44129 23.3161 0.87868 23.8787C0.316071 24.4413 0 25.2044 0 26L0 33.5C0 34.2957 0.316071 35.0587 0.87868 35.6213C1.44129 36.1839 2.20435 36.5 3 36.5H22.5C22.6226 36.5001 22.7448 36.4849 22.8638 36.455L34.8638 33.455C34.9402 33.4368 35.0149 33.4117 35.0869 33.38L42.375 30.2788L42.4575 30.2413C43.1579 29.8912 43.7578 29.3687 44.2004 28.7228C44.6431 28.0769 44.914 27.329 44.9878 26.5494C45.0615 25.7699 44.9355 24.9844 44.6218 24.267C44.308 23.5496 43.8168 22.9238 43.1944 22.4488H43.1869ZM3 26H7.5V33.5H3V26ZM41.1431 27.5394L34.0181 30.5731L22.3125 33.5H10.5V25.1206L14.7431 20.8794C15.0207 20.5996 15.3511 20.3778 15.7152 20.2268C16.0792 20.0758 16.4696 19.9987 16.8638 20H26.25C26.8467 20 27.419 20.2371 27.841 20.659C28.2629 21.081 28.5 21.6533 28.5 22.25C28.5 22.8467 28.2629 23.419 27.841 23.841C27.419 24.2629 26.8467 24.5 26.25 24.5H21C20.6022 24.5 20.2206 24.658 19.9393 24.9393C19.658 25.2206 19.5 25.6022 19.5 26C19.5 26.3978 19.658 26.7794 19.9393 27.0607C20.2206 27.342 20.6022 27.5 21 27.5H27C27.1129 27.4997 27.2254 27.4871 27.3356 27.4625L39.8981 24.5731L39.9563 24.5581C40.3397 24.4517 40.7491 24.4908 41.1054 24.668C41.4618 24.8451 41.7401 25.1479 41.8867 25.5179C42.0333 25.8879 42.0379 26.299 41.8996 26.6722C41.7613 27.0454 41.4898 27.3543 41.1375 27.5394H41.1431ZM30.75 14C31.1206 14.0004 31.4906 13.9703 31.8562 13.91C32.2675 15.1316 33.02 16.21 34.0247 17.0175C35.0295 17.8251 36.2444 18.328 37.5259 18.467C38.8074 18.6059 40.1019 18.375 41.2563 17.8015C42.4108 17.2281 43.3769 16.3361 44.0404 15.2309C44.704 14.1258 45.0372 12.8538 45.0007 11.5653C44.9643 10.2768 44.5596 9.02569 43.8346 7.95987C43.1096 6.89405 42.0946 6.05811 40.9096 5.55087C39.7246 5.04363 38.4191 4.88631 37.1475 5.0975C36.7515 3.92046 36.0384 2.87549 35.0868 2.07758C34.1352 1.27968 32.9819 0.759768 31.7538 0.575071C30.5257 0.390375 29.2705 0.548051 28.1263 1.03075C26.9821 1.51345 25.9932 2.30245 25.2685 3.31094C24.5437 4.31942 24.1113 5.50829 24.0187 6.74671C23.9261 7.98512 24.1769 9.22508 24.7436 10.3301C25.3103 11.4352 26.1709 12.3625 27.2306 13.0099C28.2903 13.6574 29.5081 14 30.75 14ZM42 11.75C42 12.4917 41.7801 13.2167 41.368 13.8334C40.956 14.4501 40.3703 14.9307 39.6851 15.2146C38.9998 15.4984 38.2458 15.5726 37.5184 15.4279C36.791 15.2833 36.1228 14.9261 35.5984 14.4017C35.0739 13.8772 34.7168 13.209 34.5721 12.4816C34.4274 11.7542 34.5016 11.0002 34.7855 10.3149C35.0693 9.62972 35.5499 9.04405 36.1666 8.63199C36.7833 8.21994 37.5083 8 38.25 8C39.2446 8 40.1984 8.39509 40.9016 9.09835C41.6049 9.80161 42 10.7554 42 11.75ZM30.75 3.5C31.5681 3.50041 32.3636 3.76833 33.0152 4.2629C33.6669 4.75747 34.1389 5.45157 34.3594 6.23938C33.5911 6.77993 32.9442 7.47488 32.4599 8.27978C31.9756 9.08468 31.6646 9.9818 31.5469 10.9138C31.285 10.9703 31.0179 10.9992 30.75 11C29.7554 11 28.8016 10.6049 28.0984 9.90165C27.3951 9.19839 27 8.24456 27 7.25C27 6.25544 27.3951 5.30161 28.0984 4.59835C28.8016 3.89509 29.7554 3.5 30.75 3.5Z" fill="black"/>
</svg>
