<svg width="24" height="25" viewBox="0 0 24 25" fill="none" xmlns="http://www.w3.org/2000/svg">
<path d="M11.2056 11.5324L0.102539 22.0766C0.103582 22.0785 0.103582 22.0813 0.104625 22.0831C0.445633 23.2281 1.61361 24.0707 3.00059 24.0707C3.55538 24.0707 4.07576 23.9363 4.52209 23.7012L4.55755 23.6825L17.0549 17.23L11.2056 11.5324Z" fill="#EA4335"/>
<path d="M22.4379 9.73687L22.4275 9.73033L17.0318 6.93191L10.9531 11.772L17.0537 17.2289L22.4202 14.4585C23.3608 14.0031 24.0001 13.1157 24.0001 12.093C24.0001 11.0759 23.3702 10.1932 22.4379 9.73687Z" fill="#FBBC04"/>
<path d="M0.102198 2.06399C0.0354565 2.2842 0 2.51562 0 2.7545V21.387C0 21.6259 0.0354565 21.8573 0.103241 22.0766L11.587 11.802L0.102198 2.06399Z" fill="#4285F4"/>
<path d="M11.2875 12.0706L17.0336 6.93006L4.5508 0.454216C4.09717 0.210671 3.5674 0.0707045 3.00114 0.0707045C1.61417 0.0707045 0.444101 0.915177 0.103093 2.06105C0.103093 2.06198 0.102051 2.06291 0.102051 2.06385L11.2875 12.0706Z" fill="#34A853"/>
</svg>
