<svg width="49" height="48" viewBox="0 0 49 48" fill="none" xmlns="http://www.w3.org/2000/svg">
<path d="M42.5 9V28.5C42.5 29.2956 42.1839 30.0587 41.6213 30.6213C41.0587 31.1839 40.2957 31.5 39.5 31.5H19.1206L21.0613 33.4387C21.2006 33.5781 21.3112 33.7436 21.3866 33.9257C21.462 34.1077 21.5008 34.3029 21.5008 34.5C21.5008 34.6971 21.462 34.8923 21.3866 35.0743C21.3112 35.2564 21.2006 35.4219 21.0613 35.5613C20.9219 35.7006 20.7564 35.8112 20.5743 35.8866C20.3923 35.962 20.1971 36.0008 20 36.0008C19.8029 36.0008 19.6077 35.962 19.4257 35.8866C19.2436 35.8112 19.0781 35.7006 18.9387 35.5613L14.4387 31.0613C14.2993 30.9219 14.1886 30.7565 14.1132 30.5744C14.0377 30.3923 13.9988 30.1971 13.9988 30C13.9988 29.8029 14.0377 29.6077 14.1132 29.4256C14.1886 29.2435 14.2993 29.0781 14.4387 28.9387L18.9387 24.4387C19.2202 24.1573 19.602 23.9992 20 23.9992C20.398 23.9992 20.7798 24.1573 21.0613 24.4387C21.3427 24.7202 21.5008 25.102 21.5008 25.5C21.5008 25.898 21.3427 26.2798 21.0613 26.5613L19.1206 28.5H39.5V9H18.5V10.5C18.5 10.8978 18.342 11.2794 18.0607 11.5607C17.7794 11.842 17.3978 12 17 12C16.6022 12 16.2206 11.842 15.9393 11.5607C15.658 11.2794 15.5 10.8978 15.5 10.5V9C15.5 8.20435 15.8161 7.44129 16.3787 6.87868C16.9413 6.31607 17.7044 6 18.5 6H39.5C40.2957 6 41.0587 6.31607 41.6213 6.87868C42.1839 7.44129 42.5 8.20435 42.5 9ZM32 36C31.6022 36 31.2206 36.158 30.9393 36.4393C30.658 36.7206 30.5 37.1022 30.5 37.5V39H9.5V19.5H29.8794L27.9387 21.4387C27.6573 21.7202 27.4992 22.102 27.4992 22.5C27.4992 22.898 27.6573 23.2798 27.9387 23.5613C28.2202 23.8427 28.602 24.0008 29 24.0008C29.398 24.0008 29.7798 23.8427 30.0613 23.5613L34.5613 19.0613C34.7007 18.9219 34.8114 18.7565 34.8868 18.5744C34.9623 18.3923 35.0012 18.1971 35.0012 18C35.0012 17.8029 34.9623 17.6077 34.8868 17.4256C34.8114 17.2435 34.7007 17.0781 34.5613 16.9387L30.0613 12.4387C29.7798 12.1573 29.398 11.9992 29 11.9992C28.602 11.9992 28.2202 12.1573 27.9387 12.4387C27.6573 12.7202 27.4992 13.102 27.4992 13.5C27.4992 13.898 27.6573 14.2798 27.9387 14.5613L29.8794 16.5H9.5C8.70435 16.5 7.94129 16.8161 7.37868 17.3787C6.81607 17.9413 6.5 18.7044 6.5 19.5V39C6.5 39.7957 6.81607 40.5587 7.37868 41.1213C7.94129 41.6839 8.70435 42 9.5 42H30.5C31.2956 42 32.0587 41.6839 32.6213 41.1213C33.1839 40.5587 33.5 39.7957 33.5 39V37.5C33.5 37.1022 33.342 36.7206 33.0607 36.4393C32.7794 36.158 32.3978 36 32 36Z" fill="black"/>
</svg>
